<?xml version="1.0" encoding="UTF-8" standalone="no"?>
<svg
   xmlns:dc="http://purl.org/dc/elements/1.1/"
   xmlns:cc="http://creativecommons.org/ns#"
   xmlns:rdf="http://www.w3.org/1999/02/22-rdf-syntax-ns#"
   xmlns:svg="http://www.w3.org/2000/svg"
   xmlns="http://www.w3.org/2000/svg"
   xmlns:sodipodi="http://sodipodi.sourceforge.net/DTD/sodipodi-0.dtd"
   xmlns:inkscape="http://www.inkscape.org/namespaces/inkscape"
   inkscape:export-ydpi="96"
   inkscape:export-xdpi="96"
   inkscape:export-filename="/Users/gregory.heitz/Downloads/graphql-markdown.png"
   inkscape:version="1.0beta2 (2b71d25, 2019-12-03)"
   sodipodi:docname="graphql-markdown.svg"
   xml:space="preserve"
   enable-background="new 0 0 400 400"
   viewBox="0 0 400 400"
   y="0px"
   x="0px"
   id="GraphQL_Logo"
   version="1.1"><metadata
   id="metadata1109"><rdf:RDF><cc:Work
       rdf:about=""><dc:format>image/svg+xml</dc:format><dc:type
         rdf:resource="http://purl.org/dc/dcmitype/StillImage" /><dc:title></dc:title></cc:Work></rdf:RDF></metadata><defs
   id="defs1107" /><sodipodi:namedview
   inkscape:current-layer="g1102"
   inkscape:window-maximized="0"
   inkscape:window-y="25"
   inkscape:window-x="0"
   inkscape:cy="42.149101"
   inkscape:cx="123.08885"
   inkscape:zoom="1.36"
   showgrid="false"
   id="namedview1105"
   inkscape:window-height="1387"
   inkscape:window-width="1720"
   inkscape:pageshadow="2"
   inkscape:pageopacity="0"
   guidetolerance="10"
   gridtolerance="10"
   objecttolerance="10"
   borderopacity="1"
   inkscape:document-rotation="0"
   bordercolor="#666666"
   pagecolor="#ffffff" />
<g
   id="g1102">
	
	
	
	
	
	
	
	
	
	
	
	
	
	
	
<g
   style="fill:#374845;stroke:#374845"
   id="g1734"><path
     id="path1026"
     d="M 126.91176,235.73529 V 104.50001 h 36.54412 L 200,152.74828 236.54411,104.50001 h 36.54412 l 0,167.63234 -35.44118,-2.57353 L 236.54411,160.468 200,208.71626 163.45588,160.468 v 75.26729 z"
     inkscape:connector-curvature="0"
     sodipodi:nodetypes="ccccccccccccc"
     style="stroke-width:1.87787;fill:#374845;stroke:#374845" /><path
     id="path1026-7"
     d="m 257.13236,303.59948 -38.08824,-51.55537 c 76.17647,0 0,0 76.17647,0 z"
     inkscape:connector-curvature="0"
     sodipodi:nodetypes="cccc"
     style="stroke-width:1.40836;fill:#374845;stroke:#374845" /></g><g
   style="stroke:#87deaa;fill:#87deaa"
   id="g1726"><g
     style="stroke:#87deaa;fill:#87deaa"
     id="g1052">
		<g
   style="stroke:#87deaa;fill:#87deaa"
   id="g1050">
			
				<rect
   style="stroke:#87deaa;fill:#87deaa"
   x="37.9"
   y="312.2"
   transform="matrix(-0.866 -0.5 0.5 -0.866 83.0693 663.3409)"
   fill="#E535AB"
   width="185"
   height="16.6"
   id="rect1048" />
		</g>
	</g><g
     style="stroke:#87deaa;fill:#87deaa"
     id="g1058">
		<g
   style="stroke:#87deaa;fill:#87deaa"
   id="g1056">
			
				<rect
   style="stroke:#87deaa;fill:#87deaa"
   x="177.1"
   y="71.1"
   transform="matrix(-0.866 -0.5 0.5 -0.866 463.3409 283.0693)"
   fill="#E535AB"
   width="185"
   height="16.6"
   id="rect1054" />
		</g>
	</g><g
     style="stroke:#87deaa;fill:#87deaa"
     id="g1064">
		<g
   style="stroke:#87deaa;fill:#87deaa"
   id="g1062">
			
				<rect
   style="stroke:#87deaa;fill:#87deaa"
   x="122.1"
   y="-13"
   transform="matrix(-0.5 -0.866 0.866 -0.5 126.7903 232.1221)"
   fill="#E535AB"
   width="16.6"
   height="185"
   id="rect1060" />
		</g>
	</g><g
     style="stroke:#87deaa;fill:#87deaa"
     id="g1076">
		<g
   style="stroke:#87deaa;fill:#87deaa"
   id="g1074">
			<rect
   style="stroke:#87deaa;fill:#87deaa"
   x="52.5"
   y="107.5"
   fill="#E535AB"
   width="16.6"
   height="185"
   id="rect1072" />
		</g>
	</g><g
     style="stroke:#87deaa;fill:#87deaa"
     id="g1082">
		<g
   style="stroke:#87deaa;fill:#87deaa"
   id="g1080">
			<rect
   style="stroke:#87deaa;fill:#87deaa"
   x="330.9"
   y="107.5"
   fill="#E535AB"
   width="16.6"
   height="185"
   id="rect1078" />
		</g>
	</g><g
     style="stroke:#87deaa;fill:#87deaa"
     id="g1088">
		<g
   style="stroke:#87deaa;fill:#87deaa"
   id="g1086">
			
				<rect
   style="stroke:#87deaa;fill:#87deaa"
   x="262.4"
   y="240.1"
   transform="matrix(-0.5 -0.866 0.866 -0.5 126.7953 714.2875)"
   fill="#E535AB"
   width="14.5"
   height="160.9"
   id="rect1084" />
		</g>
	</g><path
     style="stroke:#87deaa;fill:#87deaa"
     fill="#E535AB"
     d="M369.5,297.9c-9.6,16.7-31,22.4-47.7,12.8c-16.7-9.6-22.4-31-12.8-47.7c9.6-16.7,31-22.4,47.7-12.8   C373.5,259.9,379.2,281.2,369.5,297.9"
     id="path1090" /><path
     style="stroke:#87deaa;fill:#87deaa"
     fill="#E535AB"
     d="M90.9,137c-9.6,16.7-31,22.4-47.7,12.8c-16.7-9.6-22.4-31-12.8-47.7c9.6-16.7,31-22.4,47.7-12.8   C94.8,99,100.5,120.3,90.9,137"
     id="path1092" /><path
     style="stroke:#87deaa;fill:#87deaa"
     fill="#E535AB"
     d="M30.5,297.9c-9.6-16.7-3.9-38,12.8-47.7c16.7-9.6,38-3.9,47.7,12.8c9.6,16.7,3.9,38-12.8,47.7   C61.4,320.3,40.1,314.6,30.5,297.9"
     id="path1094" /><path
     style="stroke:#87deaa;fill:#87deaa"
     fill="#E535AB"
     d="M309.1,137c-9.6-16.7-3.9-38,12.8-47.7c16.7-9.6,38-3.9,47.7,12.8c9.6,16.7,3.9,38-12.8,47.7   C340.1,159.4,318.7,153.7,309.1,137"
     id="path1096" /><path
     style="stroke:#87deaa;fill:#87deaa"
     fill="#E535AB"
     d="M200,395.8c-19.3,0-34.9-15.6-34.9-34.9c0-19.3,15.6-34.9,34.9-34.9c19.3,0,34.9,15.6,34.9,34.9   C234.9,380.1,219.3,395.8,200,395.8"
     id="path1098" /><path
     style="stroke:#87deaa;fill:#87deaa"
     fill="#E535AB"
     d="M200,74c-19.3,0-34.9-15.6-34.9-34.9c0-19.3,15.6-34.9,34.9-34.9c19.3,0,34.9,15.6,34.9,34.9   C234.9,58.4,219.3,74,200,74"
     id="path1100" /></g><path
   inkscape:connector-curvature="0"
   id="path1730"
   d="m 194.94107,395.2422 c -13.95633,-1.99842 -26.08609,-13.45037 -28.90983,-27.29432 -0.76471,-3.7492 -0.76539,-10.30665 -0.001,-14.0052 0.32479,-1.5724 0.45524,-2.99149 0.28988,-3.15353 -0.36564,-0.35832 -79.912818,-46.29934 -80.167583,-46.29934 -0.09914,0 -1.11264,0.79854 -2.252228,1.77454 -4.332239,3.71034 -9.402945,6.43791 -14.571982,7.83839 -4.381128,1.18701 -12.734297,1.19034 -17.095588,0.007 -12.172819,-3.30332 -21.259341,-12.15806 -24.856068,-24.22203 -1.363662,-4.57392 -1.611858,-11.36973 -0.594715,-16.28377 2.47393,-11.95211 11.321974,-22.08664 22.637015,-25.92839 l 3.184205,-1.08113 -0.09331,-46.62357 -0.09331,-46.62357 -2.692031,-0.90652 C 25.431016,144.26008 18.013932,113.80787 35.822744,95.366147 42.403226,88.551798 51.078061,84.947463 60.871975,84.958364 c 8.670761,0.0097 16.674107,3.120621 23.252188,9.038335 l 1.928658,1.735044 39.983109,-23.064427 c 21.99071,-12.685434 40.1184,-23.183801 40.28375,-23.329706 0.16536,-0.145904 0.0321,-1.565489 -0.29615,-3.154632 -0.75987,-3.678772 -0.77327,-10.499693 -0.0275,-14.024977 2.92621,-13.833188 13.81483,-24.5349388 27.60562,-27.1318651 4.36584,-0.8221239 11.25934,-0.5734198 15.43213,0.5567614 11.53708,3.1247611 21.19458,12.7081837 24.46221,24.2745587 1.1387,4.030657 1.39611,11.619125 0.54032,15.929081 -0.36572,1.841922 -0.5056,3.379628 -0.32345,3.556 0.1765,0.170908 17.85768,10.43218 39.29151,22.802823 21.43382,12.370644 39.42477,22.75878 39.97988,23.084743 0.99235,0.582713 1.03558,0.567706 2.57353,-0.893283 4.65525,-4.422269 10.37421,-7.389173 17.00541,-8.822125 3.45538,-0.74668 9.92397,-0.726346 13.60294,0.04277 13.7836,2.881544 24.35614,13.424345 27.17345,27.097005 0.7522,3.65052 0.7522,10.16724 0,13.81776 -2.48511,12.06048 -11.32083,22.03184 -23.01083,25.96836 l -2.69203,0.90652 -0.0933,46.64348 -0.0933,46.64347 2.11537,0.65531 c 8.96471,2.77714 16.73516,9.49292 20.88002,18.04603 2.38764,4.92698 3.14797,7.99778 3.37551,13.63286 0.14911,3.69269 0.0489,5.52663 -0.43177,7.89864 -2.07402,10.2357 -8.51451,19.06809 -17.50962,24.01242 -8.68587,4.77436 -19.19231,5.53884 -28.65581,2.08508 -4.54637,-1.65922 -8.42518,-4.12493 -12.49149,-7.94074 l -1.65441,-1.55248 -39.88971,23.05527 c -36.20603,20.92619 -39.88505,23.13758 -39.83926,23.94682 0.0277,0.49034 0.33655,2.2978 0.68624,4.01655 0.92697,4.5561 0.61523,11.50752 -0.7172,15.99265 -4.94337,16.64007 -21.31527,27.20275 -38.37686,24.75974 z m 71.38213,-81.00437 39.84721,-23.0037 -0.66758,-2.80202 c -3.28351,-13.78186 2.40473,-28.63562 13.97488,-36.49276 2.64145,-1.79377 7.5309,-4.16408 9.86853,-4.78407 l 1.5625,-0.4144 v -46.81487 -46.81488 l -1.10964,-0.22192 c -2.22757,-0.44552 -6.83211,-2.62368 -9.93783,-4.70106 -7.40189,-4.95105 -12.60534,-12.74618 -14.52232,-21.75547 -0.70335,-3.30554 -0.68263,-10.22081 0.0411,-13.72477 0.31586,-1.52917 0.52266,-2.82758 0.45956,-2.88536 -0.38786,-0.35513 -80.55566,-46.509212 -80.78466,-46.509212 -0.15526,0 -0.59745,0.351041 -0.98265,0.780088 -1.34618,1.499423 -4.95773,4.059019 -7.96388,5.644203 -7.67675,4.048055 -16.74682,5.096437 -25.08943,2.900011 -3.64832,-0.960526 -10.02499,-4.256765 -12.82369,-6.62885 -1.39126,-1.179187 -2.73182,-2.293228 -2.97901,-2.475639 -0.30475,-0.224886 -13.33838,7.101658 -40.48513,22.757742 -22.01963,12.699169 -40.170409,23.207397 -40.335063,23.351607 -0.164651,0.14422 -0.04057,1.62648 0.275735,3.2939 2.184592,11.51623 -1.392037,23.02701 -9.712875,31.25929 -4.302015,4.25623 -9.484959,7.23467 -15.723051,9.03544 -0.364533,0.10523 -0.459559,9.77563 -0.459559,46.76823 v 46.63558 l 2.11397,0.66172 c 5.538625,1.73372 10.22203,4.57735 14.369283,8.7246 4.645883,4.64588 7.44471,9.57596 9.146515,16.11139 1.153706,4.43057 1.28678,11.20543 0.302081,15.37939 -0.349209,1.48025 -0.577654,2.74233 -0.507651,2.80463 0.07,0.0623 18.211245,10.55222 40.313875,23.31094 l 40.1866,23.19769 3.19575,-2.59548 c 3.68657,-2.9941 9.10696,-5.80568 13.48987,-6.99726 4.34876,-1.18229 12.70682,-1.18161 17.09559,0.001 5.91406,1.59415 11.74962,4.86994 15.43291,8.66325 0.90538,0.93243 1.85195,1.61635 2.10348,1.51983 0.25152,-0.0965 18.38857,-10.52716 40.30454,-23.17919 z"
   style="display:inline;fill:#87deaa;fill-opacity:1;stroke:#87deaa;stroke-width:0.368226;stop-color:#000000" /></g>
</svg>
